PathFileType	4	(X/Y/Z)	C:\Users\italobelli\Desktop\GitHub\PTbot_officialCBL\Personal_Results\ABD23_noisy1.trc
DataRate	CameraRate	NumFrames	NumMarkers	Units	OrigDataRate	OrigDataStartFrame	OrigNumFrames
105.444444	105.444444	42	9	m	105.444444	1	950
Frame#	Time		gu		centelbow		EpL		centpxt8		centijc7		ij		ts		aa		ai
			X1	Y1	Z1	X2	Y2	Z2	X3	Y3	Z3	X4	Y4	Z4	X5	Y5	Z5	X6	Y6	Z6	X7	Y7	Z7	X8	Y8	Z8	X9	Y9	Z9

1	0	-0.096688	-0.00936	0.15991	-0.14337	-0.24999	0.18291	-0.14821	-0.24148	0.21362	-0.046816	-0.15316	-0.008669	-0.046816	0.031938	-0.008669	0	0	0	-0.12831	0.029297	0.037305	-0.12641	0.028338	0.15655	-0.14612	-0.082718	0.041901
2	0.0094837	-0.096703	-0.0093424	0.15995	-0.14363	-0.24998	0.1827	-0.14847	-0.24148	0.21341	-0.046816	-0.15316	-0.008669	-0.046816	0.031938	-0.008669	0	0	0	-0.12832	0.029301	0.037326	-0.12643	0.028365	0.15657	-0.14613	-0.082713	0.041942
3	0.018967	-0.096718	-0.0093253	0.15998	-0.14389	-0.24997	0.18249	-0.14873	-0.24147	0.2132	-0.046816	-0.15316	-0.008669	-0.046816	0.031938	-0.008669	0	0	0	-0.12833	0.029304	0.037346	-0.12645	0.02839	0.15659	-0.14614	-0.082709	0.041982
4	0.028451	-0.096733	-0.0093086	0.16001	-0.14415	-0.24996	0.18228	-0.14899	-0.24147	0.213	-0.046816	-0.15316	-0.008669	-0.046816	0.031938	-0.008669	0	0	0	-0.12833	0.029307	0.037365	-0.12646	0.028414	0.15661	-0.14616	-0.082705	0.042021
5	0.037935	-0.096747	-0.0092925	0.16004	-0.14441	-0.24995	0.18208	-0.14925	-0.24147	0.2128	-0.046816	-0.15316	-0.008669	-0.046816	0.031938	-0.008669	0	0	0	-0.12834	0.029309	0.037384	-0.12648	0.028436	0.15663	-0.14617	-0.082701	0.042058
6	0.047418	-0.096761	-0.0092768	0.16007	-0.14467	-0.24994	0.18188	-0.14951	-0.24147	0.2126	-0.046816	-0.15316	-0.008669	-0.046816	0.031938	-0.008669	0	0	0	-0.12835	0.029311	0.037402	-0.1265	0.028456	0.15665	-0.14618	-0.082698	0.042094
7	0.056902	-0.096774	-0.0092615	0.1601	-0.14493	-0.24994	0.18169	-0.14977	-0.24147	0.2124	-0.046816	-0.15316	-0.008669	-0.046816	0.031938	-0.008669	0	0	0	-0.12835	0.029312	0.037419	-0.12652	0.028475	0.15667	-0.14618	-0.082696	0.042129
8	0.066386	-0.096787	-0.0092467	0.16013	-0.14518	-0.24994	0.18149	-0.15003	-0.24147	0.21221	-0.046816	-0.15316	-0.008669	-0.046816	0.031938	-0.008669	0	0	0	-0.12836	0.029314	0.037436	-0.12653	0.028493	0.15668	-0.14619	-0.082693	0.042162
9	0.075869	-0.0968	-0.0092323	0.16016	-0.14544	-0.24993	0.1813	-0.15028	-0.24147	0.21202	-0.046816	-0.15316	-0.008669	-0.046816	0.031938	-0.008669	0	0	0	-0.12836	0.029315	0.037452	-0.12655	0.028509	0.1567	-0.1462	-0.082691	0.042195
10	0.085353	-0.096812	-0.0092183	0.16019	-0.14569	-0.24993	0.18112	-0.15054	-0.24147	0.21184	-0.046816	-0.15316	-0.008669	-0.046816	0.031938	-0.008669	0	0	0	-0.12837	0.029315	0.037468	-0.12657	0.028524	0.15672	-0.14621	-0.08269	0.042225
11	0.094837	-0.096824	-0.0092048	0.16021	-0.14594	-0.24993	0.18093	-0.15079	-0.24148	0.21165	-0.046816	-0.15316	-0.008669	-0.046816	0.031938	-0.008669	0	0	0	-0.12837	0.029315	0.037483	-0.12658	0.028537	0.15673	-0.14622	-0.082689	0.042255
12	0.10432	-0.096836	-0.0091916	0.16024	-0.14619	-0.24994	0.18075	-0.15104	-0.24148	0.21147	-0.046816	-0.15316	-0.008669	-0.046816	0.031938	-0.008669	0	0	0	-0.12838	0.029315	0.037498	-0.1266	0.028549	0.15675	-0.14622	-0.082688	0.042283
13	0.1138	-0.096847	-0.0091788	0.16026	-0.14643	-0.24994	0.18057	-0.15129	-0.24149	0.21129	-0.046816	-0.15316	-0.008669	-0.046816	0.031938	-0.008669	0	0	0	-0.12838	0.029315	0.037512	-0.12662	0.02856	0.15676	-0.14623	-0.082688	0.04231
14	0.12329	-0.096858	-0.0091663	0.16028	-0.14668	-0.24994	0.1804	-0.15154	-0.2415	0.21112	-0.046816	-0.15316	-0.008669	-0.046816	0.031938	-0.008669	0	0	0	-0.12839	0.029314	0.037525	-0.12663	0.028569	0.15677	-0.14623	-0.082688	0.042336
15	0.13277	-0.096869	-0.0091542	0.1603	-0.14692	-0.24995	0.18023	-0.15179	-0.2415	0.21094	-0.046816	-0.15316	-0.008669	-0.046816	0.031938	-0.008669	0	0	0	-0.12839	0.029313	0.037538	-0.12665	0.028578	0.15679	-0.14624	-0.082688	0.04236
16	0.14226	-0.096879	-0.0091425	0.16032	-0.14716	-0.24996	0.18006	-0.15203	-0.24151	0.21077	-0.046816	-0.15316	-0.008669	-0.046816	0.031938	-0.008669	0	0	0	-0.12839	0.029312	0.037551	-0.12666	0.028584	0.1568	-0.14624	-0.082688	0.042384
17	0.15174	-0.096889	-0.0091311	0.16034	-0.14739	-0.24996	0.17989	-0.15227	-0.24152	0.21061	-0.046816	-0.15316	-0.008669	-0.046816	0.031938	-0.008669	0	0	0	-0.1284	0.02931	0.037563	-0.12667	0.02859	0.15681	-0.14625	-0.082689	0.042405
18	0.16122	-0.096898	-0.00912	0.16036	-0.14763	-0.24997	0.17972	-0.15251	-0.24153	0.21044	-0.046816	-0.15316	-0.008669	-0.046816	0.031938	-0.008669	0	0	0	-0.1284	0.029308	0.037574	-0.12669	0.028595	0.15682	-0.14625	-0.082691	0.042426
19	0.17071	-0.096908	-0.0091092	0.16038	-0.14786	-0.24998	0.17956	-0.15275	-0.24154	0.21028	-0.046816	-0.15316	-0.008669	-0.046816	0.031938	-0.008669	0	0	0	-0.1284	0.029306	0.037585	-0.1267	0.028598	0.15684	-0.14626	-0.082692	0.042445
20	0.18019	-0.096916	-0.0090987	0.16039	-0.14809	-0.24999	0.1794	-0.15298	-0.24155	0.21012	-0.046816	-0.15316	-0.008669	-0.046816	0.031938	-0.008669	0	0	0	-0.1284	0.029304	0.037596	-0.12671	0.028601	0.15685	-0.14626	-0.082694	0.042464
21	0.18967	-0.096925	-0.0090885	0.16041	-0.14831	-0.25	0.17924	-0.15321	-0.24156	0.20996	-0.046816	-0.15316	-0.008669	-0.046816	0.031938	-0.008669	0	0	0	-0.1284	0.029301	0.037606	-0.12673	0.028602	0.15686	-0.14626	-0.082696	0.04248
22	0.19916	-0.096933	-0.0090785	0.16042	-0.14854	-0.25002	0.17909	-0.15344	-0.24157	0.2098	-0.046816	-0.15316	-0.008669	-0.046816	0.031938	-0.008669	0	0	0	-0.12841	0.029298	0.037615	-0.12674	0.028602	0.15687	-0.14627	-0.082698	0.042496
23	0.20864	-0.096941	-0.0090688	0.16043	-0.14876	-0.25003	0.17893	-0.15367	-0.24159	0.20965	-0.046816	-0.15316	-0.008669	-0.046816	0.031938	-0.008669	0	0	0	-0.12841	0.029295	0.037625	-0.12675	0.028601	0.15687	-0.14627	-0.082701	0.04251
24	0.21812	-0.096948	-0.0090594	0.16045	-0.14897	-0.25004	0.17878	-0.15389	-0.2416	0.2095	-0.046816	-0.15316	-0.008669	-0.046816	0.031938	-0.008669	0	0	0	-0.12841	0.029292	0.037634	-0.12676	0.0286	0.15688	-0.14627	-0.082703	0.042523
25	0.22761	-0.096955	-0.0090502	0.16046	-0.14918	-0.25006	0.17863	-0.15411	-0.24161	0.20935	-0.046816	-0.15316	-0.008669	-0.046816	0.031938	-0.008669	0	0	0	-0.12841	0.029289	0.037642	-0.12677	0.028597	0.15689	-0.14627	-0.082706	0.042535
26	0.23709	-0.096962	-0.0090412	0.16047	-0.14939	-0.25007	0.17849	-0.15432	-0.24163	0.2092	-0.046816	-0.15316	-0.008669	-0.046816	0.031938	-0.008669	0	0	0	-0.12841	0.029285	0.03765	-0.12679	0.028593	0.1569	-0.14627	-0.08271	0.042545
27	0.24658	-0.096968	-0.0090324	0.16047	-0.1496	-0.25009	0.17834	-0.15453	-0.24164	0.20905	-0.046816	-0.15316	-0.008669	-0.046816	0.031938	-0.008669	0	0	0	-0.12841	0.029281	0.037658	-0.1268	0.028589	0.15691	-0.14627	-0.082713	0.042555
28	0.25606	-0.096975	-0.0090238	0.16048	-0.1498	-0.2501	0.1782	-0.15474	-0.24165	0.20891	-0.046816	-0.15316	-0.008669	-0.046816	0.031938	-0.008669	0	0	0	-0.12841	0.029278	0.037665	-0.1268	0.028584	0.15691	-0.14627	-0.082717	0.042563
29	0.26554	-0.09698	-0.0090154	0.16049	-0.15	-0.25012	0.17806	-0.15495	-0.24167	0.20877	-0.046816	-0.15316	-0.008669	-0.046816	0.031938	-0.008669	0	0	0	-0.12841	0.029273	0.037672	-0.12681	0.028578	0.15692	-0.14627	-0.082721	0.04257
30	0.27503	-0.096986	-0.0090072	0.16049	-0.15019	-0.25014	0.17792	-0.15515	-0.24168	0.20863	-0.046816	-0.15316	-0.008669	-0.046816	0.031938	-0.008669	0	0	0	-0.12841	0.029269	0.037678	-0.12682	0.028571	0.15693	-0.14627	-0.082725	0.042575
31	0.28451	-0.096991	-0.0089991	0.1605	-0.15038	-0.25015	0.17778	-0.15534	-0.2417	0.20849	-0.046816	-0.15316	-0.008669	-0.046816	0.031938	-0.008669	0	0	0	-0.12841	0.029265	0.037684	-0.12683	0.028563	0.15693	-0.14627	-0.082729	0.042579
32	0.29399	-0.096995	-0.0089912	0.1605	-0.15057	-0.25017	0.17765	-0.15553	-0.24171	0.20835	-0.046816	-0.15316	-0.008669	-0.046816	0.031938	-0.008669	0	0	0	-0.12841	0.029261	0.03769	-0.12684	0.028554	0.15694	-0.14627	-0.082733	0.042582
33	0.30348	-0.097	-0.0089834	0.1605	-0.15075	-0.25019	0.17751	-0.15572	-0.24173	0.20822	-0.046816	-0.15316	-0.008669	-0.046816	0.031938	-0.008669	0	0	0	-0.12841	0.029256	0.037696	-0.12685	0.028545	0.15695	-0.14627	-0.082738	0.042584
34	0.31296	-0.097004	-0.0089758	0.1605	-0.15093	-0.25021	0.17738	-0.1559	-0.24174	0.20808	-0.046816	-0.15316	-0.008669	-0.046816	0.031938	-0.008669	0	0	0	-0.12841	0.029251	0.037701	-0.12685	0.028536	0.15695	-0.14627	-0.082742	0.042585
35	0.32244	-0.097007	-0.0089682	0.1605	-0.1511	-0.25022	0.17725	-0.15608	-0.24176	0.20795	-0.046816	-0.15316	-0.008669	-0.046816	0.031938	-0.008669	0	0	0	-0.1284	0.029247	0.037706	-0.12686	0.028525	0.15696	-0.14627	-0.082747	0.042584
36	0.33193	-0.097011	-0.0089608	0.1605	-0.15127	-0.25024	0.17712	-0.15625	-0.24178	0.20782	-0.046816	-0.15316	-0.008669	-0.046816	0.031938	-0.008669	0	0	0	-0.1284	0.029242	0.037711	-0.12687	0.028514	0.15696	-0.14627	-0.082752	0.042582
37	0.34141	-0.097014	-0.0089535	0.1605	-0.15143	-0.25026	0.17699	-0.15642	-0.24179	0.20769	-0.046816	-0.15316	-0.008669	-0.046816	0.031938	-0.008669	0	0	0	-0.1284	0.029237	0.037715	-0.12687	0.028503	0.15696	-0.14627	-0.082757	0.042579
38	0.3509	-0.097016	-0.0089462	0.1605	-0.15159	-0.25028	0.17687	-0.15658	-0.24181	0.20757	-0.046816	-0.15316	-0.008669	-0.046816	0.031938	-0.008669	0	0	0	-0.1284	0.029232	0.037719	-0.12688	0.02849	0.15697	-0.14627	-0.082762	0.042575
39	0.36038	-0.097019	-0.008939	0.16049	-0.15174	-0.2503	0.17674	-0.15674	-0.24182	0.20744	-0.046816	-0.15316	-0.008669	-0.046816	0.031938	-0.008669	0	0	0	-0.1284	0.029227	0.037723	-0.12688	0.028478	0.15697	-0.14627	-0.082767	0.04257
40	0.36986	-0.097021	-0.0089319	0.16049	-0.15189	-0.25032	0.17662	-0.15689	-0.24184	0.20732	-0.046816	-0.15316	-0.008669	-0.046816	0.031938	-0.008669	0	0	0	-0.1284	0.029222	0.037727	-0.12688	0.028465	0.15698	-0.14627	-0.082772	0.042563
41	0.37935	-0.097022	-0.0089248	0.16048	-0.15203	-0.25033	0.1765	-0.15704	-0.24185	0.20719	-0.046816	-0.15316	-0.008669	-0.046816	0.031938	-0.008669	0	0	0	-0.1284	0.029217	0.037731	-0.12689	0.028451	0.15698	-0.14627	-0.082778	0.042555
42	0.38883	-0.097024	-0.0089177	0.16047	-0.15217	-0.25035	0.17638	-0.15718	-0.24187	0.20707	-0.046816	-0.15316	-0.008669	-0.046816	0.031938	-0.008669	0	0	0	-0.12839	0.029212	0.037734	-0.12689	0.028437	0.15698	-0.14627	-0.082783	0.042546
